<?xml version="1.0" encoding="UTF-8" standalone="no"?>
<svg
   height="48"
   viewBox="0 -960 960 960"
   width="48"
   version="1.1"
   id="svg4"
   sodipodi:docname="favorite.svg"
   inkscape:version="1.2 (dc2aedaf03, 2022-05-15)"
   xmlns:inkscape="http://www.inkscape.org/namespaces/inkscape"
   xmlns:sodipodi="http://sodipodi.sourceforge.net/DTD/sodipodi-0.dtd"
   xmlns="http://www.w3.org/2000/svg"
   xmlns:svg="http://www.w3.org/2000/svg">
  <defs
     id="defs8" />
  <sodipodi:namedview
     id="namedview6"
     pagecolor="#505050"
     bordercolor="#ffffff"
     borderopacity="1"
     inkscape:showpageshadow="0"
     inkscape:pageopacity="0"
     inkscape:pagecheckerboard="1"
     inkscape:deskcolor="#505050"
     showgrid="false"
     inkscape:zoom="5.7395833"
     inkscape:cx="-3.2232305"
     inkscape:cy="11.150635"
     inkscape:window-width="1366"
     inkscape:window-height="705"
     inkscape:window-x="-8"
     inkscape:window-y="-8"
     inkscape:window-maximized="1"
     inkscape:current-layer="svg4" />
  <g
     id="g365"
     inkscape:export-filename="favoritepng"
     inkscape:export-xdpi="96"
     inkscape:export-ydpi="96">
    <path
       style="fill:#ff0000;stroke:#ff0000;stroke-width:37.6776"
       d="m 325.70312,-805.9375 c -43.84995,0 -79.77346,14.1667 -107.77343,42.5 -27.99997,28.3333 -41.99219,64.6175 -41.99219,108.82812 0,25.78931 5.13543,51.86982 15.46875,78.20313 10.33332,26.33331 28.3568,56.33337 54.02344,90 25.66664,33.66663 60.49223,72.48442 104.49219,116.48437 43.99995,43.99996 99.34902,96.67455 166.01562,158.00782 67.4906,-61.99661 123.01361,-115.1569 166.60156,-159.49219 43.58796,-44.33462 78.20055,-83.19014 103.86719,-116.52344 25.66664,-33.3333 43.69011,-63.05065 54.02344,-89.14062 10.33332,-26.09064 15.50781,-51.97267 15.50781,-77.69531 0,-44.09663 -14.03128,-80.33858 -42.03125,-108.67188 -27.99997,-28.3333 -63.92348,-42.5 -107.77344,-42.5 -34.3493,0 -66.11759,10.52346 -95.35156,31.52344 -29.2333,20.99998 -52.85939,50.4766 -70.85937,88.47656 H 490.9375 c -17.33332,-37.3333 -40.64951,-66.63544 -69.88281,-87.96875 -29.23397,-21.33331 -61.00227,-32.03125 -95.35157,-32.03125 z"
       id="path357" />
    <path
       d="m 515.92326,-132.92248 -41,-37 q -105.768,-97.121 -174.884,-167.561 -69.116,-70.439 -110.116,-125.939 -41,-55.5 -57.5,-100.5 -16.5,-45 -16.5,-91 0,-90.155 60.5,-150.577 60.5,-60.423 149.5,-60.423 57,0 105.5,27 48.5,27 84.5,78 42,-54 89,-79.5 47,-25.5 101,-25.5 89,0 149.5,60.423 60.5,60.422 60.5,150.577 0,46 -16.5,91 -16.5,45 -57.5,100.5 -41,55.5 -110.116,125.939 -69.116,70.44 -174.884,167.561 z m 0,-79 q 101.236,-92.995 166.618,-159.498 65.382,-66.502 103.882,-116.502 38.5,-50 54,-89.135 15.5,-39.136 15.5,-77.72 0,-66.145 -42,-108.645 -42,-42.5 -107.775,-42.5 -51.524,0 -95.375,31.5 -43.85,31.5 -70.85,88.5 h -49 q -26,-56 -69.85,-88 -43.851,-32 -95.375,-32 -65.775,0 -107.775,42.5 -42,42.5 -42,108.816 0,38.684 15.5,78.184 15.5,39.5 54,90 38.5,50.5 104.5,116.5 66,66 166,158 z m 0,-297 z"
       id="path2" />
  </g>
</svg>
